<svg width="19" height="20" viewBox="0 0 19 20" fill="none" xmlns="http://www.w3.org/2000/svg">
<path d="M7.56597 13.9613C7.25016 13.9613 6.99414 14.2173 6.99414 14.5331C6.99414 14.8489 7.25016 15.105 7.56597 15.105H12.1406C12.4564 15.105 12.7124 14.8489 12.7124 14.5331C12.7124 14.2173 12.4564 13.9613 12.1406 13.9613H7.56597Z" fill="#1C274C"/>
<path fill-rule="evenodd" clip-rule="evenodd" d="M9.85342 1.76233C9.31354 1.76233 8.82299 1.91697 8.29085 2.17575C7.77643 2.42592 7.18216 2.79474 6.43989 3.25542L4.86425 4.23331C4.1619 4.6692 3.59949 5.01824 3.16601 5.35021C2.71713 5.69398 2.37235 6.04409 2.12331 6.49907C1.87479 6.95309 1.76288 7.43619 1.70922 8.00722C1.65722 8.5606 1.65722 9.23734 1.65723 10.086V11.3156C1.65722 12.7671 1.65721 13.913 1.77365 14.8088C1.8931 15.7279 2.14409 16.4698 2.71119 17.0564C3.2809 17.6457 4.00588 17.909 4.90339 18.0338C5.77323 18.1547 6.88416 18.1547 8.28421 18.1547H11.4226C12.8227 18.1547 13.9336 18.1547 14.8035 18.0338C15.7009 17.909 16.4259 17.6457 16.9956 17.0564C17.5627 16.4698 17.8137 15.7279 17.9332 14.8088C18.0496 13.913 18.0496 12.7672 18.0496 11.3156V10.086C18.0496 9.23734 18.0496 8.5606 17.9976 8.00722C17.9439 7.43619 17.832 6.95309 17.5835 6.49907C17.3345 6.04409 16.9898 5.69398 16.5408 5.35021C16.1074 5.01824 15.5449 4.66921 14.8426 4.23332L13.2669 3.25542C12.5247 2.79474 11.9304 2.42591 11.416 2.17575C10.8839 1.91697 10.3933 1.76233 9.85342 1.76233ZM7.0168 4.24339C7.79125 3.76274 8.33579 3.42561 8.79097 3.20425C9.23448 2.98858 9.5486 2.90598 9.85342 2.90598C10.1582 2.90598 10.4724 2.98858 10.9159 3.20424C11.3711 3.42561 11.9156 3.76274 12.6901 4.24339L14.2149 5.18976C14.9475 5.64442 15.4618 5.96439 15.8455 6.25819C16.2188 6.54406 16.4335 6.77997 16.5803 7.04819C16.7277 7.31736 16.8137 7.63206 16.859 8.11422C16.9054 8.60794 16.906 9.23101 16.906 10.114V11.2737C16.906 12.7764 16.9048 13.8479 16.7991 14.6615C16.6952 15.4605 16.4996 15.9241 16.1734 16.2615C15.8499 16.5961 15.4094 16.7948 14.6459 16.901C13.864 17.0098 12.8326 17.0111 11.3783 17.0111H8.32855C6.87418 17.0111 5.84288 17.0098 5.06091 16.901C4.29744 16.7948 3.85696 16.5961 3.53342 16.2615C3.20727 15.9241 3.01163 15.4605 2.90777 14.6615C2.80202 13.8479 2.80088 12.7764 2.80088 11.2737V10.114C2.80088 9.23101 2.80146 8.60794 2.84786 8.11422C2.89316 7.63206 2.97918 7.31736 3.12651 7.04819C3.27333 6.77997 3.48809 6.54406 3.86137 6.25819C4.24501 5.96439 4.75935 5.64442 5.49193 5.18976L7.0168 4.24339Z" fill="#1C274C"/>
</svg>
