<svg width="20" height="21" viewBox="0 0 20 21" fill="none" xmlns="http://www.w3.org/2000/svg">
<path d="M15.8333 9.66663H4.16667C3.24619 9.66663 2.5 10.4128 2.5 11.3333V17.1666C2.5 18.0871 3.24619 18.8333 4.16667 18.8333H15.8333C16.7538 18.8333 17.5 18.0871 17.5 17.1666V11.3333C17.5 10.4128 16.7538 9.66663 15.8333 9.66663Z" stroke="white" stroke-linecap="round" stroke-linejoin="round"/>
<path d="M5.8335 9.66663V6.33329C5.8335 5.22822 6.27248 4.16842 7.05388 3.38701C7.83529 2.60561 8.89509 2.16663 10.0002 2.16663C11.1052 2.16663 12.165 2.60561 12.9464 3.38701C13.7278 4.16842 14.1668 5.22822 14.1668 6.33329V9.66663" stroke="white" stroke-linecap="round" stroke-linejoin="round"/>
</svg>
