<svg width="146" height="24" viewBox="0 0 146 24" fill="none" xmlns="http://www.w3.org/2000/svg">
<path d="M136.027 7.57549V6.8291H145.26V7.57549H141.046V20.0067H140.241V7.57549H136.027Z" fill="#04068A"/>
<path d="M126.232 20.0067V6.8291H133.568V7.57549H127.037V13.0383H133.175V13.7847H127.037V19.2603H133.722V20.0067H126.232Z" fill="#04068A"/>
<path d="M115.562 20.0067V6.8291H122.898V7.57549H116.367V13.0383H122.505V13.7847H116.367V19.2603H123.052V20.0067H115.562Z" fill="#04068A"/>
<path d="M105.371 20.0067V6.8291H106.175V19.2603H112.609V20.0067H105.371Z" fill="#04068A"/>
<path d="M94.7539 20.0067V6.8291H102.108V7.57549H95.5582V13.0383H101.497V13.7847H95.5582V20.0067H94.7539Z" fill="#04068A"/>
<path d="M78.9878 20.0067V6.8291H86.323V7.57549H79.7921V13.0383H85.9305V13.7847H79.7921V19.2603H86.4774V20.0067H78.9878Z" fill="#04068A"/>
<path d="M75.8963 10.9471H75.0727C74.9869 10.501 74.826 10.0699 74.5901 9.65378C74.3542 9.2334 74.0496 8.85592 73.6764 8.52133C73.3075 8.18245 72.8785 7.91435 72.3895 7.71703C71.9005 7.51971 71.36 7.42105 70.7681 7.42105C69.9016 7.42105 69.1037 7.65269 68.3745 8.11596C67.6495 8.57495 67.0683 9.25056 66.6308 10.1428C66.1975 11.035 65.9809 12.1267 65.9809 13.4179C65.9809 14.7176 66.1975 15.8136 66.6308 16.7059C67.0683 17.5981 67.6495 18.2737 68.3745 18.7327C69.1037 19.1874 69.9016 19.4147 70.7681 19.4147C71.36 19.4147 71.9005 19.3182 72.3895 19.1252C72.8785 18.9279 73.3075 18.6619 73.6764 18.3273C74.0496 17.9884 74.3542 17.6088 74.5901 17.1884C74.826 16.7681 74.9869 16.3348 75.0727 15.8887H75.8963C75.8019 16.4206 75.6196 16.9418 75.3493 17.4522C75.0834 17.9627 74.7316 18.426 74.2941 18.8421C73.8609 19.2539 73.3482 19.582 72.7563 19.8265C72.1686 20.0667 71.5059 20.1869 70.7681 20.1869C69.6699 20.1869 68.7026 19.908 67.8662 19.3504C67.0297 18.7885 66.3734 17.9992 65.8972 16.9825C65.4254 15.9659 65.1895 14.7777 65.1895 13.4179C65.1895 12.0581 65.4254 10.8699 65.8972 9.85325C66.3734 8.83661 67.0297 8.04948 67.8662 7.49183C68.7026 6.92989 69.6699 6.64893 70.7681 6.64893C71.5059 6.64893 72.1686 6.77118 72.7563 7.01569C73.3482 7.2559 73.8609 7.58191 74.2941 7.99371C74.7316 8.40122 75.0834 8.86021 75.3493 9.37067C75.6196 9.88113 75.8019 10.4066 75.8963 10.9471Z" fill="#04068A"/>
<path d="M62.0556 6.8291V20.0067H61.2706L52.8673 8.28971H52.7901V20.0067H51.9858V6.8291H52.7773L61.1806 18.559H61.2578V6.8291H62.0556Z" fill="#04068A"/>
<path d="M39.9406 20.0067H39.0913L43.8463 6.8291H44.7729L49.5279 20.0067H48.6785L44.3418 7.86504H44.2774L39.9406 20.0067ZM41.1439 15.0458H47.4753V15.7922H41.1439V15.0458Z" fill="#04068A"/>
<path d="M36.6465 6.8291V20.0067H35.8615L27.4582 8.28971H27.381V20.0067H26.5767V6.8291H27.3681L35.7714 18.559H35.8486V6.8291H36.6465Z" fill="#04068A"/>
<path d="M22.7628 6.8291V20.0067H21.9585V6.8291H22.7628Z" fill="#04068A"/>
<path d="M11.3418 20.0067V6.8291H18.6963V7.57549H12.1461V13.0383H18.085V13.7847H12.1461V20.0067H11.3418Z" fill="#04068A"/>
<g clip-path="url(#clip0_24_367)">
<path fill-rule="evenodd" clip-rule="evenodd" d="M9.62583 6.39148C13.7055 6.39148 17.0125 9.69885 17.0125 13.7782C17.0125 17.8575 13.7055 21.1649 9.62583 21.1649C5.54651 21.1649 2.23913 17.8575 2.23913 13.7782C2.23913 9.69885 5.54651 6.39148 9.62583 6.39148ZM9.62583 4.15234C12.2835 4.15234 14.6903 5.22999 16.4323 6.97166C18.174 8.71371 19.2517 11.1202 19.2517 13.7782C19.2517 16.4362 18.174 18.843 16.4323 20.5847C14.6907 22.3264 12.2838 23.404 9.62583 23.404C6.96782 23.404 4.56136 22.3264 2.81931 20.5847C1.07764 18.8426 0 16.4358 0 13.7782C0 11.1202 1.07764 8.71371 2.81931 6.97166C4.56136 5.22999 6.96782 4.15234 9.62583 4.15234ZM15.7653 7.6387C14.194 6.06773 12.0233 5.09575 9.62583 5.09575C7.22802 5.09575 5.05732 6.06773 3.48635 7.6387C1.91539 9.20966 0.943406 11.3804 0.943406 13.7782C0.943406 16.1756 1.91539 18.3463 3.48635 19.9176C5.05732 21.4886 7.22802 22.4606 9.62583 22.4606C12.0236 22.4606 14.1943 21.4886 15.7653 19.9176C17.3363 18.3467 18.3083 16.176 18.3083 13.7782C18.3083 11.3804 17.3363 9.20966 15.7653 7.6387ZM10.7595 12.3783C10.7373 12.1264 10.6362 11.9323 10.4564 11.7913C10.332 11.694 10.1695 11.63 9.97063 11.6003V13.0611L10.3331 13.1431C10.6779 13.2187 10.984 13.3179 11.2502 13.4431C11.5149 13.5684 11.7379 13.7188 11.9191 13.8921C12.1003 14.0636 12.238 14.264 12.3308 14.4888C12.4241 14.7148 12.4722 14.9682 12.4752 15.2469C12.4722 15.6894 12.3602 16.0681 12.1402 16.3854C11.9191 16.7016 11.6014 16.9453 11.1878 17.1137C10.8426 17.2547 10.4365 17.3363 9.97063 17.3589V18.1512H9.40925V17.3585C8.94187 17.3345 8.52638 17.2495 8.16353 17.1025C7.72736 16.9276 7.38895 16.6614 7.14831 16.3038C6.90616 15.9462 6.78282 15.4939 6.77606 14.9472H8.3959C8.40869 15.1717 8.4696 15.3608 8.57526 15.5101C8.6828 15.6608 8.83057 15.7748 9.01782 15.8515C9.13702 15.9011 9.26749 15.9346 9.40925 15.9526V14.411L8.90728 14.2944C8.30152 14.1553 7.82512 13.9305 7.47543 13.6195C7.12725 13.3085 6.95429 12.8882 6.95579 12.3572C6.95429 11.9244 7.07122 11.5443 7.30548 11.2187C7.53973 10.8934 7.86347 10.64 8.27896 10.4573C8.61775 10.3091 8.99413 10.2211 9.40925 10.1937V9.40519H9.97063V10.1926C10.3989 10.2185 10.7787 10.3076 11.1092 10.4588C11.51 10.643 11.8195 10.8998 12.0409 11.23C12.2624 11.5605 12.3745 11.9421 12.3793 12.3783H10.7595ZM9.40925 11.6003C9.31149 11.6146 9.22387 11.6364 9.14642 11.6661C9.00053 11.724 8.89148 11.8026 8.81929 11.9004C8.74559 11.9996 8.70874 12.1136 8.70536 12.2403C8.70197 12.3463 8.72303 12.4377 8.76966 12.5178C8.8159 12.5979 8.88509 12.6671 8.97458 12.7276C9.06482 12.7889 9.17387 12.8415 9.3002 12.8867C9.33555 12.8991 9.37202 12.9111 9.40925 12.9224V11.6003ZM9.97063 15.9485C10.0748 15.9331 10.1699 15.909 10.256 15.8756C10.4162 15.8146 10.5399 15.7297 10.6264 15.6206C10.7132 15.5101 10.758 15.3849 10.7595 15.2439C10.758 15.1123 10.7163 14.9987 10.6362 14.9039C10.5561 14.8092 10.4339 14.7276 10.2688 14.6584C10.1819 14.6216 10.0823 14.5862 9.97063 14.5524V15.9485Z" fill="#04068A"/>
</g>
<defs>
<clipPath id="clip0_24_367">
<rect width="19.2517" height="19.2517" fill="white" transform="translate(0 4.15234)"/>
</clipPath>
</defs>
</svg>
