<svg width="51" height="60" viewBox="0 0 51 60" fill="none" xmlns="http://www.w3.org/2000/svg">
<g clip-path="url(#clip0_24_403)">
<mask id="path-1-inside-1_24_403" fill="white">
<path d="M38.8999 0C32.316 0 27.0131 6.31875 27.0131 14.0625C27.0131 21.81 32.316 28.125 38.8999 28.125C45.4837 28.125 50.8503 21.8175 50.8503 14.0625C50.8501 13.9368 50.8285 13.8125 50.7867 13.6969C50.6087 6.12562 45.3709 0.00375 38.8999 0.00375V0ZM38.8999 1.875C44.6256 1.875 49.2611 7.33125 49.2611 14.0625C49.2611 20.7975 44.6256 26.25 38.8999 26.25C37.5443 26.2525 36.2017 25.9387 34.9493 25.3266C33.6969 24.7146 32.5594 23.8163 31.6024 22.6836C30.6453 21.5509 29.8875 20.2061 29.3726 18.7265C28.8578 17.247 28.5959 15.6619 28.6022 14.0625C28.6022 7.32375 33.1742 1.875 38.8999 1.875ZM34.9588 7.5V7.51875H34.9254V9.39375H36.5543C38.0386 9.39375 38.7886 10.2206 39.0588 11.25H34.9588V13.125H39.0588C38.7886 14.1544 38.037 14.985 36.5543 14.985H35.9949L35.9854 14.9662L35.9774 14.985H34.9254V16.2563L34.8746 16.3144L34.9254 16.3725V16.86H35.3466L40.2411 22.5037L41.3535 21.1631L37.5237 16.7475C38.2938 16.5762 39.0043 16.1415 39.5666 15.4974C40.1289 14.8532 40.5182 14.0282 40.6861 13.125H42.8537V11.25H40.6861C40.5637 10.575 40.2999 9.9375 39.9265 9.375H42.8537V7.5H34.9588ZM18.562 13.1287C14.4556 13.1287 11.1216 17.0362 11.1216 21.8625V26.7619L10.2619 25.7494C10.1875 25.6593 10.0985 25.5879 10.0002 25.5392C9.90192 25.4906 9.79635 25.4658 9.68977 25.4662C9.53237 25.4674 9.3788 25.5237 9.24855 25.6279C9.11829 25.7322 9.01722 25.8797 8.95814 26.0519C8.89907 26.224 8.88466 26.413 8.91674 26.5948C8.94882 26.7766 9.02595 26.9431 9.13833 27.0731L11.3854 29.7262C11.5344 29.902 11.7365 30.0007 11.9472 30.0007C12.1578 30.0007 12.3599 29.902 12.5089 29.7262L14.756 27.0731C14.8319 26.9866 14.8924 26.8832 14.934 26.7688C14.9757 26.6544 14.9976 26.5314 14.9985 26.4069C14.9994 26.2825 14.9793 26.159 14.9394 26.0438C14.8994 25.9286 14.8404 25.8239 14.7658 25.7359C14.6912 25.6479 14.6025 25.5782 14.5048 25.5311C14.4072 25.484 14.3026 25.4602 14.1971 25.4613C14.0916 25.4624 13.9873 25.4883 13.8904 25.5374C13.7934 25.5865 13.7057 25.658 13.6324 25.7475L12.7107 26.835V21.8625C12.7107 18.0487 15.3042 15.0037 18.562 15.0037H24.6293C24.8401 15.0037 25.0422 14.905 25.1912 14.7292C25.3402 14.5533 25.4239 14.3149 25.4239 14.0662C25.4239 13.8176 25.3402 13.5792 25.1912 13.4033C25.0422 13.2275 24.8401 13.1287 24.6293 13.1287H18.562ZM38.8872 30C38.6813 30.004 38.4847 30.1021 38.3389 30.2738L36.0919 32.9269C36.0179 33.0139 35.9592 33.1173 35.919 33.2311C35.8789 33.3449 35.8582 33.467 35.8581 33.5902C35.8579 33.7135 35.8783 33.8356 35.9182 33.9496C35.958 34.0635 36.0165 34.1671 36.0903 34.2544C36.164 34.3417 36.2517 34.411 36.3481 34.4583C36.4446 34.5056 36.548 34.5301 36.6525 34.5302C36.757 34.5304 36.8605 34.5063 36.957 34.4593C37.0536 34.4123 37.1414 34.3433 37.2154 34.2563L38.1339 33.1688V38.1412C38.1356 39.046 37.9853 39.9422 37.6915 40.7779C37.3978 41.6137 36.9666 42.3724 36.4227 43.0102C35.8789 43.6481 35.2332 44.1523 34.5232 44.4939C33.8131 44.8354 33.0526 45.0074 32.2859 45H26.2185C26.0078 45 25.8057 45.0988 25.6566 45.2746C25.5076 45.4504 25.4239 45.6889 25.4239 45.9375C25.4239 46.1861 25.5076 46.4246 25.6566 46.6004C25.8057 46.7762 26.0078 46.875 26.2185 46.875H32.2859C36.3922 46.875 39.7231 42.9675 39.7231 38.1412V33.2344L40.586 34.2563C40.6601 34.3433 40.7479 34.4123 40.8446 34.4592C40.9413 34.5062 41.0449 34.5302 41.1494 34.53C41.254 34.5297 41.3575 34.5052 41.454 34.4577C41.5505 34.4103 41.6381 34.3408 41.7119 34.2534C41.7857 34.166 41.8441 34.0623 41.8839 33.9483C41.9237 33.8342 41.9441 33.712 41.9439 33.5886C41.9437 33.4653 41.9228 33.3432 41.8826 33.2293C41.8424 33.1154 41.7836 33.012 41.7095 32.925L39.4624 30.2738C39.3872 30.1852 39.2977 30.1153 39.1991 30.0683C39.1006 30.0212 38.9935 29.998 38.8872 30ZM11.8844 31.8788C5.30054 31.8788 -0.00244141 38.1919 -0.00244141 45.9375C-0.00244141 53.685 5.30054 60 11.8844 60C18.4682 60 23.8348 53.6925 23.8348 45.9375C23.8346 45.8118 23.8129 45.6875 23.7712 45.5719H23.7696C23.5916 38.0006 18.3554 31.8825 11.8844 31.8825V31.8788ZM11.8844 33.7537C17.6101 33.7537 22.2456 39.2044 22.2456 45.9375C22.2456 52.6725 17.6101 58.125 11.8844 58.125C10.5288 58.1275 9.18618 57.8137 7.93378 57.2016C6.68139 56.5896 5.54393 55.6913 4.58687 54.5586C3.6298 53.4259 2.87203 52.0811 2.35714 50.6015C1.84225 49.122 1.58042 47.5369 1.58671 45.9375C1.58084 44.3384 1.84298 42.7537 2.35806 41.2746C2.87313 39.7955 3.63098 38.4511 4.588 37.3188C5.54502 36.1865 6.68233 35.2886 7.93452 34.6768C9.18671 34.065 10.5291 33.7513 11.8844 33.7537ZM11.9035 37.4963V37.5C11.7991 37.502 11.6961 37.5281 11.6003 37.5771C11.5046 37.626 11.4179 37.6967 11.3453 37.7852C11.2727 37.8736 11.2156 37.9781 11.1772 38.0926C11.1388 38.2071 11.1199 38.3294 11.1216 38.4525V39.2775C9.56423 39.6619 8.34376 41.1469 8.34376 43.0181C8.34376 45.1988 9.99647 46.8713 11.9162 46.8713C13.0762 46.8713 13.8994 47.8012 13.8994 48.8494C13.8994 49.8975 13.0762 50.8219 11.9162 50.8219C10.7561 50.8219 9.93291 49.8975 9.93291 48.8494C9.9488 47.5819 8.32787 47.5819 8.34376 48.8494C8.34376 50.7712 9.58965 52.1888 11.1216 52.5956V53.4263C11.1216 53.6749 11.2053 53.9133 11.3543 54.0892C11.5033 54.265 11.7054 54.3638 11.9162 54.3638C12.1269 54.3638 12.329 54.265 12.478 54.0892C12.627 53.9133 12.7107 53.6749 12.7107 53.4263V52.5919C14.2681 52.2056 15.4886 50.7206 15.4886 48.8494C15.4886 46.6687 13.8359 44.9963 11.9162 44.9963C10.7561 44.9963 9.93291 44.0663 9.93291 43.0181C9.93291 41.985 10.737 41.0775 11.8717 41.0531C11.9018 41.0552 11.9321 41.0552 11.9622 41.0531C13.0969 41.0794 13.8994 41.9812 13.8994 43.0144C13.8835 44.2837 15.5045 44.2837 15.4886 43.0144C15.4886 41.0925 14.2427 39.6769 12.7107 39.2681V38.4487C12.7125 38.3231 12.6927 38.1983 12.6528 38.0819C12.6128 37.9654 12.5534 37.8596 12.4781 37.7707C12.4028 37.6819 12.3131 37.6118 12.2144 37.5646C12.1157 37.5175 12.0099 37.4942 11.9035 37.4963Z"/>
</mask>
<path d="M38.8999 0C32.316 0 27.0131 6.31875 27.0131 14.0625C27.0131 21.81 32.316 28.125 38.8999 28.125C45.4837 28.125 50.8503 21.8175 50.8503 14.0625C50.8501 13.9368 50.8285 13.8125 50.7867 13.6969C50.6087 6.12562 45.3709 0.00375 38.8999 0.00375V0ZM38.8999 1.875C44.6256 1.875 49.2611 7.33125 49.2611 14.0625C49.2611 20.7975 44.6256 26.25 38.8999 26.25C37.5443 26.2525 36.2017 25.9387 34.9493 25.3266C33.6969 24.7146 32.5594 23.8163 31.6024 22.6836C30.6453 21.5509 29.8875 20.2061 29.3726 18.7265C28.8578 17.247 28.5959 15.6619 28.6022 14.0625C28.6022 7.32375 33.1742 1.875 38.8999 1.875ZM34.9588 7.5V7.51875H34.9254V9.39375H36.5543C38.0386 9.39375 38.7886 10.2206 39.0588 11.25H34.9588V13.125H39.0588C38.7886 14.1544 38.037 14.985 36.5543 14.985H35.9949L35.9854 14.9662L35.9774 14.985H34.9254V16.2563L34.8746 16.3144L34.9254 16.3725V16.86H35.3466L40.2411 22.5037L41.3535 21.1631L37.5237 16.7475C38.2938 16.5762 39.0043 16.1415 39.5666 15.4974C40.1289 14.8532 40.5182 14.0282 40.6861 13.125H42.8537V11.25H40.6861C40.5637 10.575 40.2999 9.9375 39.9265 9.375H42.8537V7.5H34.9588ZM18.562 13.1287C14.4556 13.1287 11.1216 17.0362 11.1216 21.8625V26.7619L10.2619 25.7494C10.1875 25.6593 10.0985 25.5879 10.0002 25.5392C9.90192 25.4906 9.79635 25.4658 9.68977 25.4662C9.53237 25.4674 9.3788 25.5237 9.24855 25.6279C9.11829 25.7322 9.01722 25.8797 8.95814 26.0519C8.89907 26.224 8.88466 26.413 8.91674 26.5948C8.94882 26.7766 9.02595 26.9431 9.13833 27.0731L11.3854 29.7262C11.5344 29.902 11.7365 30.0007 11.9472 30.0007C12.1578 30.0007 12.3599 29.902 12.5089 29.7262L14.756 27.0731C14.8319 26.9866 14.8924 26.8832 14.934 26.7688C14.9757 26.6544 14.9976 26.5314 14.9985 26.4069C14.9994 26.2825 14.9793 26.159 14.9394 26.0438C14.8994 25.9286 14.8404 25.8239 14.7658 25.7359C14.6912 25.6479 14.6025 25.5782 14.5048 25.5311C14.4072 25.484 14.3026 25.4602 14.1971 25.4613C14.0916 25.4624 13.9873 25.4883 13.8904 25.5374C13.7934 25.5865 13.7057 25.658 13.6324 25.7475L12.7107 26.835V21.8625C12.7107 18.0487 15.3042 15.0037 18.562 15.0037H24.6293C24.8401 15.0037 25.0422 14.905 25.1912 14.7292C25.3402 14.5533 25.4239 14.3149 25.4239 14.0662C25.4239 13.8176 25.3402 13.5792 25.1912 13.4033C25.0422 13.2275 24.8401 13.1287 24.6293 13.1287H18.562ZM38.8872 30C38.6813 30.004 38.4847 30.1021 38.3389 30.2738L36.0919 32.9269C36.0179 33.0139 35.9592 33.1173 35.919 33.2311C35.8789 33.3449 35.8582 33.467 35.8581 33.5902C35.8579 33.7135 35.8783 33.8356 35.9182 33.9496C35.958 34.0635 36.0165 34.1671 36.0903 34.2544C36.164 34.3417 36.2517 34.411 36.3481 34.4583C36.4446 34.5056 36.548 34.5301 36.6525 34.5302C36.757 34.5304 36.8605 34.5063 36.957 34.4593C37.0536 34.4123 37.1414 34.3433 37.2154 34.2563L38.1339 33.1688V38.1412C38.1356 39.046 37.9853 39.9422 37.6915 40.7779C37.3978 41.6137 36.9666 42.3724 36.4227 43.0102C35.8789 43.6481 35.2332 44.1523 34.5232 44.4939C33.8131 44.8354 33.0526 45.0074 32.2859 45H26.2185C26.0078 45 25.8057 45.0988 25.6566 45.2746C25.5076 45.4504 25.4239 45.6889 25.4239 45.9375C25.4239 46.1861 25.5076 46.4246 25.6566 46.6004C25.8057 46.7762 26.0078 46.875 26.2185 46.875H32.2859C36.3922 46.875 39.7231 42.9675 39.7231 38.1412V33.2344L40.586 34.2563C40.6601 34.3433 40.7479 34.4123 40.8446 34.4592C40.9413 34.5062 41.0449 34.5302 41.1494 34.53C41.254 34.5297 41.3575 34.5052 41.454 34.4577C41.5505 34.4103 41.6381 34.3408 41.7119 34.2534C41.7857 34.166 41.8441 34.0623 41.8839 33.9483C41.9237 33.8342 41.9441 33.712 41.9439 33.5886C41.9437 33.4653 41.9228 33.3432 41.8826 33.2293C41.8424 33.1154 41.7836 33.012 41.7095 32.925L39.4624 30.2738C39.3872 30.1852 39.2977 30.1153 39.1991 30.0683C39.1006 30.0212 38.9935 29.998 38.8872 30ZM11.8844 31.8788C5.30054 31.8788 -0.00244141 38.1919 -0.00244141 45.9375C-0.00244141 53.685 5.30054 60 11.8844 60C18.4682 60 23.8348 53.6925 23.8348 45.9375C23.8346 45.8118 23.8129 45.6875 23.7712 45.5719H23.7696C23.5916 38.0006 18.3554 31.8825 11.8844 31.8825V31.8788ZM11.8844 33.7537C17.6101 33.7537 22.2456 39.2044 22.2456 45.9375C22.2456 52.6725 17.6101 58.125 11.8844 58.125C10.5288 58.1275 9.18618 57.8137 7.93378 57.2016C6.68139 56.5896 5.54393 55.6913 4.58687 54.5586C3.6298 53.4259 2.87203 52.0811 2.35714 50.6015C1.84225 49.122 1.58042 47.5369 1.58671 45.9375C1.58084 44.3384 1.84298 42.7537 2.35806 41.2746C2.87313 39.7955 3.63098 38.4511 4.588 37.3188C5.54502 36.1865 6.68233 35.2886 7.93452 34.6768C9.18671 34.065 10.5291 33.7513 11.8844 33.7537ZM11.9035 37.4963V37.5C11.7991 37.502 11.6961 37.5281 11.6003 37.5771C11.5046 37.626 11.4179 37.6967 11.3453 37.7852C11.2727 37.8736 11.2156 37.9781 11.1772 38.0926C11.1388 38.2071 11.1199 38.3294 11.1216 38.4525V39.2775C9.56423 39.6619 8.34376 41.1469 8.34376 43.0181C8.34376 45.1988 9.99647 46.8713 11.9162 46.8713C13.0762 46.8713 13.8994 47.8012 13.8994 48.8494C13.8994 49.8975 13.0762 50.8219 11.9162 50.8219C10.7561 50.8219 9.93291 49.8975 9.93291 48.8494C9.9488 47.5819 8.32787 47.5819 8.34376 48.8494C8.34376 50.7712 9.58965 52.1888 11.1216 52.5956V53.4263C11.1216 53.6749 11.2053 53.9133 11.3543 54.0892C11.5033 54.265 11.7054 54.3638 11.9162 54.3638C12.1269 54.3638 12.329 54.265 12.478 54.0892C12.627 53.9133 12.7107 53.6749 12.7107 53.4263V52.5919C14.2681 52.2056 15.4886 50.7206 15.4886 48.8494C15.4886 46.6687 13.8359 44.9963 11.9162 44.9963C10.7561 44.9963 9.93291 44.0663 9.93291 43.0181C9.93291 41.985 10.737 41.0775 11.8717 41.0531C11.9018 41.0552 11.9321 41.0552 11.9622 41.0531C13.0969 41.0794 13.8994 41.9812 13.8994 43.0144C13.8835 44.2837 15.5045 44.2837 15.4886 43.0144C15.4886 41.0925 14.2427 39.6769 12.7107 39.2681V38.4487C12.7125 38.3231 12.6927 38.1983 12.6528 38.0819C12.6128 37.9654 12.5534 37.8596 12.4781 37.7707C12.4028 37.6819 12.3131 37.6118 12.2144 37.5646C12.1157 37.5175 12.0099 37.4942 11.9035 37.4963Z" fill="black" stroke="#1B1B1B" stroke-width="80" mask="url(#path-1-inside-1_24_403)"/>
</g>
<defs>
<clipPath id="clip0_24_403">
<rect width="50.8527" height="60" fill="white" transform="translate(-0.00244141)"/>
</clipPath>
</defs>
</svg>
