<svg width="58" height="52" viewBox="0 0 58 52" fill="none" xmlns="http://www.w3.org/2000/svg">
<path d="M52.6556 40.745C52.0836 40.745 51.6199 41.2087 51.6199 41.7807V45.5714C51.6199 47.2875 50.2288 48.6786 48.5128 48.6786H6.21422C4.49819 48.6786 3.10707 47.2875 3.10707 45.5714V12.4286C3.10707 10.7125 4.49819 9.32143 6.21422 9.32143H16.3849C16.9569 9.32143 17.4206 8.85772 17.4206 8.28571C17.4206 7.71371 16.9569 7.25 16.3849 7.25H6.21422C3.35417 7.25 1.03564 9.56853 1.03564 12.4286V45.5714C1.03564 48.4315 3.35417 50.75 6.21422 50.75H48.5128C51.3681 50.7386 53.68 48.4268 53.6914 45.5714V41.7807C53.6914 41.2087 53.2277 40.745 52.6556 40.745Z" fill="#04068A"/>
<path d="M53.8569 23.4279H53.6912V12.4287C53.6799 9.57332 51.368 7.26143 48.5126 7.25008C47.9406 7.25008 47.4769 7.71379 47.4769 8.2858C47.4769 8.8578 47.9406 9.32151 48.5126 9.32151C50.2287 9.32151 51.6198 10.7126 51.6198 12.4287V13.0087H50.4598L44.2455 6.79437L39.7298 2.27865C39.5353 2.08258 39.2706 1.97229 38.9944 1.97229C38.7183 1.97229 38.4535 2.08258 38.2591 2.27865L32.7905 7.74722L27.3012 2.27865C26.8915 1.88139 26.2403 1.88139 25.8305 2.27865L15.1005 13.0087H11.3926C10.8206 13.0087 10.3569 13.4724 10.3569 14.0444C10.3569 14.6164 10.8206 15.0801 11.3926 15.0801H51.6198V23.3658H45.5712C41.5672 23.3658 38.3212 26.6117 38.3212 30.6158V31.4029C38.3212 35.407 41.5672 38.6529 45.5712 38.6529H53.8569C55.573 38.6529 56.9641 37.2618 56.9641 35.5458V26.5351C56.9641 24.8191 55.573 23.4279 53.8569 23.4279ZM39.0048 4.47437L42.0084 7.47794C40.1919 8.69836 37.8176 8.69836 36.0012 7.47794L39.0048 4.47437ZM34.5305 8.94865C37.1725 10.9653 40.8371 10.9653 43.4791 8.94865L47.6219 13.0915H38.0312L34.2405 9.21794L34.5305 8.94865ZM22.5162 13.0915L28.7305 6.87722L30.1805 8.32722L25.4162 13.0087L22.5162 13.0915ZM31.7341 9.71508L35.2141 13.0087H28.3369L31.7341 9.71508ZM26.5762 4.47437L27.3426 5.2408L19.5748 13.0087H18.0419L26.5762 4.47437ZM54.8926 35.5458C54.8926 36.1178 54.4289 36.5815 53.8569 36.5815H45.5712C44.1978 36.5815 42.8806 36.0359 41.9094 35.0647C40.9382 34.0936 40.3926 32.7764 40.3926 31.4029V30.6158C40.3926 27.7557 42.7112 25.4372 45.5712 25.4372H53.8569C54.4289 25.4372 54.8926 25.9009 54.8926 26.4729V35.5458Z" fill="#04068A"/>
<path d="M45.737 33.1429C46.881 33.1429 47.8084 32.2154 47.8084 31.0714C47.8084 29.9274 46.881 29 45.737 29C44.5929 29 43.6655 29.9274 43.6655 31.0714C43.6655 32.2154 44.5929 33.1429 45.737 33.1429Z" fill="#04068A"/>
</svg>
